# xmcd CD database file
#
# Track frame offsets:
#	150
#	17331
#	32917
#	50252
#	67371
#	84919
#	103162
#	119212
#	121542
#	138521
#	154067
#	160648
#	178008
#
# Disc length: 2607 seconds
#
# Revision: 2
# Processed by: cddbd v1.5.2PL0 Copyright (c) Steve Scherf et al.
# Submitted via: CDex 1.81
#
DISCID=a90a2d0d
DTITLE=Take 6 - Feels Good
DYEAR=2005
DGENRE=R&B
TTITLE0=Come On
TTITLE1=This Is Another Day
TTITLE2=Feels Good
TTITLE3=Wait For The Sunshine
TTITLE4=Family Of Love
TTITLE5=More Than Ever
TTITLE6=Set U Free
TTITLE7=Vinterlude
TTITLE8=Just In Time
TTITLE9=Lamb Of God
TTITLE10=I'll Never Turn Back No More
TTITLE11=You Can Make It - Go On
TTITLE12=Flowing With Time
EXTD=YEAR: 2005
EXTT0=
EXTT1=
EXTT2=
EXTT3=
EXTT4=
EXTT5=
EXTT6=
EXTT7=
EXTT8=
EXTT9=
EXTT10=
EXTT11=
EXTT12=
PLAYORDER=
